<svg width="104" height="93" viewBox="0 0 104 93" fill="none" xmlns="http://www.w3.org/2000/svg">
<path d="M52 92.2015C80.3192 92.2015 103.276 83.1956 103.276 72.0862C103.276 60.9769 80.3192 51.9709 52 51.9709C23.6808 51.9709 0.72361 60.9769 0.72361 72.0862C0.72361 83.1956 23.6808 92.2015 52 92.2015Z" fill="#F9FAFB"/>
<path d="M31.4528 11.907L29.4306 24.5875H22.8583L24.8806 11.907H31.4528Z" fill="#F7F9FC"/>
<path d="M64.1347 25.0111C64.5722 25.0111 64.8722 25.3528 64.8042 25.775C64.7375 26.1972 64.3292 26.5403 63.8903 26.5403H38.2028C37.7653 26.5403 37.4639 26.1972 37.5319 25.775C37.5986 25.3528 38.0083 25.0111 38.4458 25.0111H64.1347Z" fill="#667185"/>
<path d="M66.2694 15.9542H81.2347L78.9903 30.0278L78.1014 35.6028H38.7181C37.2833 35.6028 36.1764 34.675 36.0181 33.3375L35.8958 32.2917C35.7375 30.9556 34.6306 30.0264 33.1958 30.0264H21.9917L22.6153 26.1125H30.7722L33.2819 10.3764H25.125L26.5778 1.26392H68.3514L68.5708 1.51392L66.2694 15.9542ZM64.7083 21.4167C65.1458 21.4167 65.5542 21.075 65.6208 20.6528C65.6875 20.2306 65.3889 19.8875 64.9514 19.8875H39.2625C38.825 19.8875 38.4153 20.2306 38.3472 20.6528C38.2806 21.075 38.5806 21.4167 39.0181 21.4167H64.7083ZM63.8917 26.5389C64.3292 26.5389 64.7375 26.1959 64.8056 25.7736C64.8722 25.3514 64.5736 25.0098 64.1361 25.0098H38.4458C38.0083 25.0098 37.5986 25.3514 37.5319 25.7736C37.4653 26.1959 37.7653 26.5389 38.2028 26.5389H63.8917ZM63.075 31.6584C63.5125 31.6584 63.9208 31.3167 63.9875 30.8945C64.0542 30.4723 63.7556 30.1292 63.3181 30.1292H37.6292C37.1917 30.1292 36.7819 30.4723 36.7139 30.8945C36.6472 31.3167 36.9472 31.6584 37.3847 31.6584H63.075Z" fill="#F7F9FC"/>
<path d="M63.3181 30.1306C63.7556 30.1306 64.0542 30.4737 63.9875 30.8959C63.9208 31.3181 63.5125 31.6598 63.075 31.6598H37.3861C36.9486 31.6598 36.6472 31.3181 36.7153 30.8959C36.7819 30.4737 37.1917 30.1306 37.6306 30.1306H63.3181Z" fill="#667185"/>
<path d="M63.3181 30.1306C63.7556 30.1306 64.0542 30.4737 63.9875 30.8959C63.9208 31.3181 63.5125 31.6598 63.075 31.6598H37.3861C36.9486 31.6598 36.6472 31.3181 36.7153 30.8959C36.7819 30.4737 37.1917 30.1306 37.6306 30.1306H63.3181Z" fill="#667185"/>
<path d="M91.525 36.0611C91.5236 36.0181 91.5194 35.975 91.5153 35.932C91.5125 35.907 91.5111 35.8806 91.5083 35.8556C91.5028 35.8084 91.4944 35.7611 91.4861 35.7139C91.4833 35.6973 91.4819 35.6806 91.4778 35.6639C91.4778 35.6611 91.4764 35.6584 91.475 35.6542C91.4653 35.6042 91.4528 35.5542 91.4403 35.5056C91.4375 35.4931 91.4347 35.4792 91.4306 35.4667C91.4139 35.4056 91.3944 35.3445 91.3722 35.2847C91.3722 35.2834 91.3708 35.282 91.3708 35.2806C91.3694 35.2778 91.3681 35.275 91.3667 35.2709C91.3333 35.1806 91.2958 35.0945 91.2528 35.0097C91.2486 35.0028 91.2472 34.9945 91.2431 34.9875C91.2417 34.9834 91.2389 34.9806 91.2361 34.9764C91.1972 34.9028 91.1556 34.8306 91.1097 34.7611C91.1056 34.7542 91.1014 34.7472 91.0972 34.7403C91.0764 34.7097 91.0556 34.6792 91.0347 34.65L88.4222 31.0875C88.4486 31.1236 88.4736 31.1611 88.4972 31.1986C88.5431 31.2681 88.5847 31.3403 88.6236 31.4139C88.6292 31.425 88.6347 31.4361 88.6403 31.4472C88.6819 31.532 88.7208 31.6195 88.7542 31.7084C88.7556 31.7125 88.7583 31.7167 88.7597 31.7222C88.7806 31.782 88.8 31.8431 88.8181 31.9042C88.8222 31.9167 88.8236 31.9306 88.8278 31.9431C88.8403 31.9917 88.8528 32.0417 88.8625 32.0917C88.8667 32.1111 88.8694 32.1306 88.8722 32.15C88.8806 32.1972 88.8875 32.2431 88.8944 32.2917C88.8972 32.3167 88.8986 32.3431 88.9014 32.3681C88.9056 32.4111 88.9083 32.4542 88.9111 32.4972C88.9125 32.525 88.9125 32.5528 88.9125 32.5806C88.9125 32.6222 88.9125 32.6653 88.9111 32.707C88.9097 32.7347 88.9097 32.7639 88.9069 32.7931C88.9042 32.8361 88.9 32.8792 88.8958 32.9236C88.8931 32.9514 88.8903 32.9792 88.8861 33.0084C88.8792 33.0556 88.8722 33.1014 88.8625 33.1486C88.8583 33.1736 88.8542 33.1986 88.8486 33.2236C88.8361 33.2847 88.8208 33.3459 88.8042 33.407C88.8014 33.4181 88.7986 33.4292 88.7958 33.4417C88.775 33.5139 88.7514 33.5875 88.725 33.6597C88.7167 33.682 88.7069 33.7042 88.6986 33.7264C88.6792 33.7778 88.6583 33.8292 88.6361 33.8792C88.6097 33.9375 88.5833 33.9959 88.5542 34.0556L69.8111 71.0334L69.7167 70.9056C69.6833 70.982 69.6472 71.0556 69.6083 71.1292C69.6056 71.1347 69.6028 71.1389 69.6014 71.1445C69.5639 71.2153 69.5236 71.2834 69.4819 71.3514C69.425 71.4431 69.3653 71.5306 69.3014 71.6167C69.2833 71.6417 69.2639 71.6639 69.2458 71.6875C69.2028 71.7417 69.1597 71.7959 69.1139 71.8486C69.0903 71.8764 69.0653 71.9028 69.0403 71.9292C68.9986 71.9736 68.9556 72.0181 68.9111 72.0611C68.8847 72.0861 68.8597 72.1125 68.8333 72.1361C68.7861 72.1792 68.7375 72.2209 68.6889 72.2625C68.6639 72.2834 68.6403 72.3042 68.6153 72.325C68.5403 72.3861 68.4625 72.4445 68.3819 72.4986C68.2986 72.5556 68.2125 72.6084 68.125 72.6597C68.1014 72.6736 68.0764 72.6861 68.0514 72.7C67.9764 72.7417 67.9 72.7806 67.8222 72.8167C67.7917 72.832 67.7597 72.8459 67.7292 72.8597C67.7 72.8722 67.6708 72.8847 67.6417 72.8959C67.5944 72.9153 67.5472 72.9334 67.5 72.95C67.4694 72.9611 67.4403 72.9709 67.4097 72.982C67.3625 72.9972 67.3153 73.0125 67.2681 73.025C67.2347 73.0347 67.2028 73.0445 67.1694 73.0528C67.1208 73.0653 67.0708 73.0764 67.0208 73.0875C66.9889 73.0945 66.9569 73.1014 66.9264 73.1084C66.8722 73.1181 66.8167 73.1264 66.7611 73.1334C66.7347 73.1375 66.7069 73.1417 66.6806 73.1445C66.5986 73.1542 66.5153 73.1611 66.4333 73.1639L69.0458 76.7264C69.05 76.7264 69.0542 76.725 69.0583 76.725L69.0597 76.7264C69.0681 76.7264 69.0764 76.7264 69.0861 76.7264C69.125 76.7264 69.1625 76.725 69.2014 76.7236C69.2181 76.7222 69.2347 76.7195 69.2514 76.7195C69.3347 76.7153 69.4181 76.707 69.5 76.6959C69.525 76.6931 69.5486 76.6903 69.5736 76.6875C69.6792 76.6722 69.7833 76.6514 69.8875 76.625C69.9125 76.6195 69.9361 76.6111 69.9597 76.6056C70.0139 76.5903 70.0694 76.5778 70.1236 76.5597C70.1528 76.55 70.1819 76.5389 70.2111 76.5292C70.2333 76.5222 70.2542 76.5139 70.2764 76.507C70.3667 76.4736 70.4556 76.4389 70.5431 76.4C70.5486 76.3972 70.5542 76.3931 70.5611 76.3917C70.5667 76.3889 70.5736 76.3875 70.5806 76.3834C70.5806 76.3834 70.5806 76.382 70.5792 76.382C70.5792 76.382 70.5792 76.3834 70.5806 76.3834C70.6778 76.3389 70.7722 76.2889 70.8653 76.2361C70.8681 76.2347 70.8694 76.2334 70.8722 76.232C70.9 76.2167 70.925 76.1986 70.9514 76.182C71.0139 76.1445 71.0764 76.107 71.1375 76.0653C71.1431 76.0625 71.1472 76.0597 71.1528 76.0556C71.1903 76.0306 71.225 76.0014 71.2611 75.9736C71.3042 75.9417 71.3472 75.9125 71.3875 75.8792C71.3931 75.875 71.3972 75.8722 71.4028 75.8681C71.4417 75.8375 71.4764 75.8028 71.5139 75.7709C71.5458 75.7431 71.5792 75.7167 71.6097 75.6875C71.6167 75.6806 71.6236 75.675 71.6306 75.6681C71.6319 75.6667 71.6319 75.6667 71.6333 75.6653C71.6347 75.6639 71.6347 75.6639 71.6361 75.6625C71.6444 75.6556 71.6528 75.6472 71.6597 75.6403C71.6778 75.6236 71.6917 75.6042 71.7097 75.5875C71.7569 75.5403 71.8056 75.4931 71.85 75.4431C71.8625 75.4292 71.8736 75.4139 71.8861 75.4C71.8958 75.3889 71.9083 75.3778 71.9181 75.3667C71.9278 75.3556 71.9375 75.3431 71.9472 75.332C71.9792 75.2931 72.0097 75.2542 72.0403 75.2139C72.0458 75.207 72.0528 75.2 72.0583 75.1917C72.0597 75.1889 72.0611 75.1861 72.0639 75.1834C72.1278 75.0986 72.1875 75.0097 72.2444 74.9195C72.25 74.9097 72.2569 74.9014 72.2625 74.8931C72.2681 74.8847 72.2722 74.875 72.2778 74.8667C72.3222 74.7931 72.3639 74.7195 72.4028 74.6417L91.1736 37.6139C91.1986 37.5639 91.2236 37.5125 91.2458 37.4625C91.25 37.4542 91.2528 37.4459 91.2556 37.4389C91.2778 37.3875 91.2986 37.3361 91.3181 37.2861C91.3264 37.2639 91.3361 37.2417 91.3444 37.2195C91.3708 37.1472 91.3944 37.0736 91.4153 37.0014C91.4181 36.9903 91.4208 36.9792 91.4236 36.9667C91.4403 36.9056 91.4556 36.8445 91.4681 36.7834C91.4736 36.7584 91.4778 36.7334 91.4819 36.7084C91.4903 36.6611 91.4986 36.6139 91.5056 36.5681C91.5097 36.5403 91.5125 36.5125 91.5153 36.4834C91.5194 36.4403 91.5236 36.3959 91.5264 36.3528C91.5278 36.3236 91.5292 36.2959 91.5306 36.2667C91.5319 36.2236 91.5319 36.182 91.5319 36.1403C91.5264 36.1167 91.5264 36.0889 91.525 36.0611Z" fill="#667185"/>
<path d="M68.8903 77.05L65.8319 72.8792L66.4181 72.8556C66.4931 72.8528 66.5681 72.8459 66.6431 72.8375C66.6556 72.8361 66.6681 72.8347 66.6792 72.832L66.7167 72.8264C66.7667 72.8195 66.8167 72.8125 66.8667 72.8028C66.8847 72.8 66.9042 72.7959 66.9222 72.7917L66.9542 72.7847C66.9986 72.775 67.0444 72.7653 67.0889 72.7542C67.1139 72.7472 67.1375 72.7403 67.1625 72.7334L67.1792 72.7278C67.2222 72.7153 67.2667 72.7028 67.3097 72.6875C67.3375 72.6778 67.3653 72.6681 67.3931 72.6584C67.4361 72.6431 67.4806 72.6264 67.5236 72.6084C67.5556 72.5959 67.5792 72.5861 67.6042 72.575C67.625 72.5667 67.6431 72.557 67.6625 72.5472L67.6903 72.5347C67.7625 72.5014 67.8319 72.4653 67.9014 72.4278L67.9306 72.4125C67.9431 72.4056 67.9569 72.3986 67.9694 72.3917C68.0597 72.3389 68.1361 72.2917 68.2056 72.2431C68.2736 72.1959 68.3431 72.1445 68.4194 72.0834C68.4319 72.0722 68.4458 72.0625 68.4583 72.0514L68.4875 72.0264C68.5319 71.9889 68.5764 71.95 68.6194 71.9097C68.6403 71.8903 68.6597 71.8709 68.6806 71.8514L68.6917 71.8403C68.7319 71.8014 68.7708 71.7597 68.8097 71.7195C68.8319 71.6959 68.8542 71.6709 68.8764 71.6459C68.9194 71.5972 68.9583 71.5486 68.9986 71.4986L69.0208 71.4709C69.0306 71.4584 69.0403 71.4459 69.05 71.4334C69.1111 71.3528 69.1667 71.2709 69.2153 71.1903C69.2542 71.1278 69.2903 71.0653 69.325 71.0014L69.3306 70.9889C69.3667 70.9209 69.4 70.8528 69.4292 70.7834L69.6458 70.2861L69.7597 70.4417L88.2778 33.9139C88.3056 33.8597 88.3292 33.807 88.3528 33.7528C88.3736 33.7056 88.3917 33.6597 88.4097 33.6125L88.4333 33.5528C88.4569 33.4861 88.4792 33.4209 88.4972 33.3542L88.5042 33.3236C88.5194 33.2681 88.5333 33.2125 88.5444 33.1584L88.5569 33.0917C88.5653 33.0486 88.5722 33.007 88.5778 32.9653C88.5806 32.9472 88.5819 32.9278 88.5847 32.9084L88.5861 32.8903C88.5903 32.8514 88.5944 32.8125 88.5958 32.7736C88.5972 32.7486 88.5986 32.7236 88.5986 32.6986C88.6 32.6597 88.6 32.6222 88.6 32.5847C88.6 32.5597 88.6 32.5361 88.5986 32.5111C88.5972 32.4736 88.5944 32.4347 88.5903 32.3972L88.5875 32.3722C88.5861 32.3584 88.5847 32.3445 88.5833 32.3292C88.5778 32.2875 88.5708 32.2459 88.5639 32.2042L88.5556 32.1514C88.5472 32.107 88.5361 32.0639 88.525 32.0195L88.5181 31.9917C88.5014 31.9306 88.4847 31.8778 88.4653 31.825L88.4625 31.8181C88.4333 31.7389 88.4014 31.6639 88.3611 31.5847L88.3514 31.5639C88.3153 31.4945 88.2778 31.4306 88.2361 31.3667C88.2139 31.3334 88.1931 31.3014 88.1708 31.2695L88.675 30.9C88.6764 30.9014 88.6778 30.9028 88.6778 30.9042L91.2875 34.4625C91.3125 34.4959 91.3361 34.5292 91.3583 34.5639L91.3778 34.5972C91.4236 34.6667 91.4694 34.7445 91.5097 34.8209L91.5194 34.8375C91.5278 34.8542 91.5333 34.8681 91.5389 34.8806C91.5819 34.9653 91.6222 35.057 91.6556 35.15L91.6694 35.1889C91.6889 35.2445 91.7111 35.3125 91.7306 35.3806C91.7333 35.3931 91.7361 35.4042 91.7389 35.4167C91.7556 35.4792 91.768 35.5348 91.7792 35.5917L91.7833 35.6098C91.7847 35.6167 91.7875 35.632 91.7889 35.6472C91.8 35.7097 91.8083 35.7625 91.8139 35.8153C91.8167 35.8375 91.8181 35.8597 91.8208 35.882L91.8222 35.9014C91.8264 35.9486 91.8305 35.9959 91.8319 36.0445C91.8333 36.075 91.8333 36.1056 91.8347 36.1361C91.8361 36.182 91.8347 36.2292 91.8333 36.2778C91.8319 36.3098 91.8306 36.3403 91.8292 36.3722C91.8264 36.4209 91.8222 36.4681 91.8167 36.5167L91.8153 36.5334C91.8125 36.5584 91.8097 36.5847 91.8069 36.6097C91.8 36.6611 91.7903 36.7125 91.7819 36.7639L91.7778 36.7875C91.775 36.807 91.7708 36.8278 91.7667 36.8472C91.7528 36.9139 91.7361 36.982 91.7181 37.0486C91.7139 37.0653 91.7111 37.0764 91.7083 37.0861C91.6861 37.1653 91.6597 37.2459 91.6306 37.325C91.625 37.3417 91.6181 37.3584 91.6111 37.375L91.6028 37.3959C91.5806 37.4514 91.5583 37.507 91.5347 37.5625C91.5319 37.5709 91.5278 37.5806 91.5236 37.5903C91.4986 37.6445 91.4736 37.6986 91.4458 37.7542L72.675 74.782C72.6361 74.857 72.5917 74.9375 72.5389 75.0264C72.5347 75.0347 72.5292 75.0445 72.5236 75.0542C72.5167 75.0653 72.5097 75.0764 72.5028 75.0861C72.4403 75.1847 72.3792 75.275 72.3167 75.3597L72.3222 75.3667L72.15 75.5667L72.1486 75.5681L71.9097 75.8472L71.8986 75.8347C71.8903 75.8445 71.8806 75.8528 71.8722 75.8625L71.8181 75.9139C71.7944 75.9361 71.7708 75.9556 71.7472 75.9764L71.6792 76.0347C71.6514 76.0597 71.6236 76.0847 71.5944 76.1084L71.5722 76.125C71.5444 76.1472 71.5097 76.1736 71.475 76.1986L71.4056 76.25C71.3792 76.2709 71.3514 76.2917 71.3236 76.3111L71.3 76.3264C71.2431 76.3653 71.1764 76.4056 71.1097 76.4459L71.0819 76.4639C71.0681 76.4736 71.0528 76.482 71.0389 76.4917L71.0486 76.5042L70.725 76.6556C70.7194 76.6584 70.7139 76.6611 70.7083 76.6625L70.4806 76.7681L70.475 76.7611C70.4444 76.7722 70.4125 76.7847 70.3792 76.7972L70.2792 76.832C70.2569 76.8403 70.2361 76.8472 70.2139 76.8542C70.1667 76.8695 70.1181 76.882 70.0708 76.8945L70.0139 76.9167C69.9958 76.9222 69.9778 76.9278 69.9583 76.932C69.8458 76.9597 69.7306 76.982 69.6167 77C69.5972 77.0028 69.5792 77.0056 69.5597 77.007L69.5361 77.0097C69.4444 77.0222 69.3528 77.0306 69.2653 77.0347C69.2444 77.0375 69.2278 77.0389 69.2111 77.0403C69.1681 77.0417 69.1264 77.0431 69.0847 77.0431H69.0556H69.05L68.8903 77.05ZM67 73.4139L69.2 76.4125C69.2111 76.4111 69.2208 76.4097 69.2319 76.4097C69.3069 76.4056 69.3833 76.3986 69.4583 76.3889L69.525 76.3806C69.6208 76.3667 69.7167 76.3472 69.8111 76.3236L69.9153 76.2959C69.9528 76.2861 69.9917 76.2764 70.0292 76.2639C70.0431 76.2597 70.0569 76.2542 70.0708 76.25L70.1694 76.2153C70.2653 76.1806 70.3431 76.1486 70.4139 76.1167C70.4125 76.1167 70.4208 76.1125 70.4292 76.1084L70.4542 76.0986C70.5389 76.0597 70.625 76.0153 70.7097 75.9667L70.7236 75.9584C70.7292 75.9542 70.7375 75.95 70.7458 75.9445C70.7597 75.9347 70.775 75.9264 70.7889 75.9167C70.8486 75.8806 70.9056 75.8472 70.9597 75.8097L70.9819 75.7959C70.9917 75.7889 71.0097 75.775 71.0278 75.7611L71.1097 75.7C71.1361 75.6806 71.1639 75.6611 71.1903 75.6403L71.2111 75.625C71.225 75.6139 71.2444 75.5959 71.2639 75.5778L71.3486 75.5042C71.3639 75.4917 71.3806 75.4778 71.3944 75.4639L71.4528 75.407C71.4639 75.3945 71.475 75.382 71.4861 75.3709L71.5153 75.3417C71.55 75.307 71.5833 75.2736 71.6167 75.2375C71.6319 75.2195 71.6403 75.2084 71.6486 75.1986C71.6583 75.1875 71.6667 75.1778 71.6764 75.1695L71.9139 75.3681L71.6792 75.1667L71.7056 75.1361C71.7333 75.1028 71.7583 75.0695 71.7847 75.0361C71.7944 75.0222 71.8014 75.0153 71.8069 75.0084L71.8125 75C71.8667 74.9278 71.9208 74.8486 71.9764 74.7584C71.9819 74.75 71.9889 74.7389 71.9958 74.7292C71.9958 74.7278 72.0014 74.7195 72.0056 74.7097C72.0458 74.6431 72.0847 74.575 72.1208 74.5042L90.8917 37.4778C90.9153 37.432 90.9375 37.3847 90.9583 37.3389L90.9681 37.3167C90.9889 37.2709 91.0069 37.2236 91.025 37.1778L91.0486 37.1181C91.0722 37.0514 91.0944 36.9861 91.1125 36.9195L91.1208 36.8889C91.1361 36.8347 91.15 36.7792 91.1611 36.7236L91.1736 36.6556C91.1819 36.6139 91.1889 36.5709 91.1944 36.5292C91.1972 36.5098 91.1986 36.4903 91.2014 36.4709L91.2028 36.4542C91.2069 36.4153 91.2111 36.3764 91.2125 36.3375C91.2139 36.3125 91.2153 36.2875 91.2153 36.2611C91.2167 36.2236 91.2167 36.1861 91.2167 36.1486C91.2167 36.1236 91.2167 36.0986 91.2153 36.075C91.2139 36.0375 91.2111 35.9986 91.2069 35.9611L91.2056 35.9375C91.2042 35.9222 91.2028 35.907 91.2014 35.8917C91.1958 35.85 91.1903 35.8097 91.1819 35.7681L91.175 35.7223C91.1736 35.7167 91.1722 35.7125 91.1722 35.707C91.1653 35.6709 91.1542 35.6278 91.1431 35.5834L91.1361 35.5556C91.1208 35.4972 91.1042 35.4459 91.0861 35.3945C91.0847 35.3917 91.0819 35.3861 91.0806 35.3792C91.0528 35.3042 91.0208 35.2292 90.9805 35.1486L90.9653 35.1181C90.9333 35.057 90.8972 34.9959 90.8556 34.9306L90.8375 34.9014C90.8264 34.8861 90.8083 34.8597 90.7903 34.8347L89.2306 32.707C89.2306 32.7097 89.2306 32.7139 89.2306 32.7167C89.2292 32.7486 89.2278 32.7806 89.2264 32.8125C89.2236 32.8597 89.2194 32.9084 89.2139 32.957L89.2125 32.975C89.2097 33 89.2069 33.025 89.2042 33.05C89.1972 33.1028 89.1875 33.1542 89.1778 33.207L89.1736 33.2306C89.1708 33.25 89.1667 33.2695 89.1625 33.2889C89.1486 33.357 89.1319 33.4236 89.1125 33.4917L89.1042 33.5264C89.0806 33.6084 89.0556 33.6875 89.0264 33.7667C89.0208 33.7834 89.0139 33.8 89.0069 33.8167L88.9986 33.8375C88.9764 33.8931 88.9556 33.9486 88.9306 34.0042C88.9028 34.0681 88.8736 34.132 88.8403 34.1945L69.8639 71.625L69.7653 71.4903C69.7611 71.4972 69.7569 71.5056 69.7514 71.5125C69.6931 71.6084 69.6264 71.7042 69.5556 71.8C69.5417 71.8181 69.5278 71.8361 69.5139 71.8542L69.4958 71.8778C69.4486 71.9375 69.4014 71.9959 69.3514 72.0528C69.3264 72.082 69.3 72.1111 69.2722 72.1403C69.2264 72.1889 69.1806 72.2361 69.1333 72.2834L69.1222 72.2945C69.0986 72.3181 69.0736 72.3417 69.05 72.3653C68.9986 72.4125 68.9472 72.457 68.8944 72.5014L68.8708 72.5222C68.8528 72.5375 68.8347 72.5542 68.8153 72.5681C68.7264 72.6389 68.6444 72.7 68.5639 72.7556C68.4819 72.8125 68.3917 72.8695 68.2875 72.9292C68.2694 72.9403 68.25 72.95 68.2319 72.9597L68.2083 72.9722C68.1278 73.0167 68.0444 73.0597 67.9597 73.0986L67.9347 73.1097C67.9097 73.1222 67.8833 73.1334 67.8583 73.1459C67.8306 73.1584 67.8 73.1709 67.7708 73.182C67.7125 73.2056 67.6611 73.225 67.6097 73.2445C67.5778 73.2556 67.5444 73.2681 67.5125 73.2792C67.4611 73.2959 67.4097 73.3111 67.3583 73.3264L67.3417 73.3306C67.3111 73.3389 67.2806 73.3486 67.2514 73.3556C67.1986 73.3695 67.1444 73.3806 67.0903 73.3931L67.0625 73.3986C67.0389 73.407 67.0194 73.4111 67 73.4139Z" fill="#F9FAFB"/>
<path d="M86.1944 30.0293C88.3597 30.0293 89.5611 32.0765 88.5569 34.0557L69.7861 71.0835C69.1542 72.3293 67.8083 73.1696 66.4444 73.1682C67.8181 73.1112 69.1514 72.1987 69.7167 70.9057L83.4722 39.4515C84.3208 37.5112 83.1083 35.6043 81.0236 35.6043H78.0986L78.9875 30.0293H86.1944Z" fill="#D0D5DD"/>
<path d="M66.4472 73.4806C66.4458 73.4806 66.4444 73.4806 66.4431 73.4806L66.4306 72.8556C67.6847 72.8042 68.9181 71.9515 69.4292 70.7806L83.1847 39.3265C83.5514 38.4876 83.5097 37.6195 83.0681 36.9459C82.6403 36.2931 81.8958 35.9181 81.0222 35.9181H77.7319L78.7208 29.7181H86.1931C87.3153 29.7181 88.2667 30.2195 88.8042 31.0959C89.3542 31.9917 89.3653 33.1529 88.8347 34.1987L70.0639 71.2237C69.3792 72.5737 67.9264 73.4806 66.4472 73.4806ZM78.4667 35.2917H81.025C82.1125 35.2917 83.0486 35.7695 83.5931 36.6029C84.1514 37.457 84.2125 38.5404 83.7583 39.5765L73.4042 63.2529L88.2778 33.914C88.7167 33.0501 88.7139 32.1404 88.2722 31.4209C87.8514 30.7348 87.0944 30.3417 86.1944 30.3417H79.2556L78.4667 35.2917Z" fill="#F9FAFB"/>
<path d="M86.3542 41.6154C86.3514 41.5681 86.3486 41.5209 86.3431 41.4737C86.3403 41.4501 86.3375 41.4265 86.3347 41.4029C86.3292 41.3612 86.3236 41.3195 86.3153 41.2779C86.3125 41.2654 86.3125 41.2529 86.3097 41.2404C86.307 41.2279 86.3042 41.2167 86.3014 41.2042C86.2931 41.1667 86.2847 41.1279 86.275 41.0904C86.2694 41.0667 86.2625 41.0431 86.257 41.0195C86.2458 40.9806 86.2333 40.9417 86.2194 40.9029C86.2139 40.8876 86.2097 40.8709 86.2042 40.8556C86.2028 40.8529 86.2014 40.8501 86.2 40.8459C86.1667 40.7556 86.1292 40.6695 86.0861 40.5848C86.0819 40.5779 86.0806 40.5695 86.0764 40.5626C86.0736 40.557 86.0695 40.5529 86.0667 40.5473C86.0278 40.4737 85.9861 40.4029 85.9417 40.3348C85.9375 40.3292 85.9347 40.3237 85.9319 40.3181C85.9111 40.2876 85.8903 40.2584 85.8694 40.2292L83.2569 36.6667C83.2819 36.7015 83.3056 36.7376 83.3292 36.7737C83.3736 36.8431 83.4167 36.914 83.4542 36.9862C83.4611 36.9987 83.4667 37.0112 83.4736 37.0237C83.5167 37.1084 83.5542 37.1959 83.5875 37.2848C83.5944 37.3042 83.6 37.3223 83.6069 37.3417C83.6194 37.3806 83.6333 37.4195 83.6444 37.4584C83.6514 37.482 83.6569 37.5056 83.6625 37.5292C83.6722 37.5667 83.6806 37.6042 83.6889 37.6431C83.6944 37.6681 83.6986 37.6917 83.7028 37.7167C83.7097 37.7584 83.7167 37.8001 83.7222 37.8417C83.725 37.8654 83.7292 37.889 83.7306 37.9126C83.7347 37.9598 83.7389 38.007 83.7403 38.0542C83.7417 38.0737 83.7431 38.0931 83.7431 38.1126C83.7444 38.1792 83.7444 38.2473 83.7417 38.3154C83.7417 38.3265 83.7403 38.3376 83.7389 38.3501C83.7361 38.407 83.7319 38.464 83.725 38.5223C83.7222 38.5459 83.7181 38.5695 83.7153 38.5931C83.7083 38.639 83.7014 38.6862 83.6931 38.732C83.6889 38.7584 83.6833 38.7848 83.6778 38.8112C83.6681 38.8556 83.6569 38.9015 83.6458 38.9473C83.6389 38.9737 83.632 39.0001 83.625 39.0265C83.6111 39.0751 83.5958 39.1237 83.5792 39.1723C83.5708 39.1945 83.5639 39.2181 83.5556 39.2404C83.5306 39.3112 83.5014 39.3834 83.4708 39.4542L69.7153 70.9084C69.6819 70.9848 69.6458 71.0584 69.6069 71.132C69.6042 71.1376 69.6014 71.1418 69.6 71.1473C69.5625 71.2181 69.5222 71.2862 69.4806 71.3542C69.4236 71.4459 69.3639 71.5334 69.3 71.6195C69.2819 71.6445 69.2625 71.6667 69.2444 71.6904C69.2014 71.7445 69.1583 71.7987 69.1125 71.8515C69.0889 71.8793 69.0639 71.9056 69.0389 71.932C68.9972 71.9765 68.9542 72.0209 68.9097 72.064C68.8833 72.089 68.8583 72.1154 68.8319 72.139C68.7847 72.182 68.7361 72.2237 68.6875 72.2654C68.6625 72.2862 68.6389 72.307 68.6139 72.3279C68.5389 72.389 68.4611 72.4473 68.3806 72.5015C68.2972 72.5584 68.2111 72.6112 68.1236 72.6626C68.1 72.6765 68.075 72.689 68.05 72.7029C67.975 72.7445 67.8986 72.7834 67.8208 72.8195C67.7903 72.8348 67.7583 72.8487 67.7278 72.8626C67.6986 72.8751 67.6694 72.8876 67.6403 72.8987C67.5931 72.9181 67.5458 72.9362 67.4986 72.9529C67.4681 72.964 67.4389 72.9737 67.4083 72.9848C67.3611 73.0001 67.3139 73.0154 67.2667 73.0279C67.2333 73.0376 67.2014 73.0473 67.1681 73.0556C67.1194 73.0681 67.0694 73.0793 67.0194 73.0904C66.9875 73.0973 66.9556 73.1042 66.925 73.1112C66.8708 73.1209 66.8153 73.1293 66.7597 73.1362C66.7333 73.1404 66.7056 73.1445 66.6792 73.1473C66.5972 73.157 66.5139 73.164 66.4319 73.1667L19.5722 73.1695C18.6264 73.1695 17.8236 72.7654 17.3403 72.107L19.9528 75.6695C20.4361 76.3279 21.2389 76.732 22.1847 76.732L69.0444 76.7293C69.1278 76.7265 69.2097 76.7195 69.2917 76.7098C69.3194 76.707 69.3458 76.7015 69.3722 76.6987C69.4278 76.6917 69.4819 76.6834 69.5361 76.6737C69.5681 76.6681 69.6 76.6598 69.6319 76.6529C69.6819 76.6417 69.7306 76.632 69.7792 76.6181C69.8125 76.6098 69.8458 76.6001 69.8792 76.5904C69.9083 76.582 69.9375 76.5751 69.9667 76.5654C69.9847 76.5598 70.0028 76.5529 70.0208 76.5473C70.0514 76.5376 70.0806 76.5265 70.1111 76.5154C70.1583 76.4987 70.2056 76.4792 70.2528 76.4612C70.2819 76.4487 70.3111 76.4376 70.3403 76.4251C70.3556 76.4181 70.3708 76.4126 70.3847 76.407C70.4014 76.4001 70.4167 76.3904 70.4333 76.382C70.5111 76.3459 70.5875 76.307 70.6625 76.2654C70.6792 76.257 70.6958 76.2501 70.7111 76.2404C70.7194 76.2348 70.7278 76.2293 70.7361 76.2251C70.9069 76.1265 71.0708 76.014 71.225 75.8904C71.2306 75.8862 71.2375 75.882 71.2431 75.8765C71.2625 75.8612 71.2792 75.8431 71.2986 75.8279C71.3472 75.7862 71.3958 75.7445 71.4431 75.7015C71.4528 75.6917 71.4639 75.6834 71.475 75.6737C71.4917 75.6584 71.5056 75.6418 71.5222 75.6251C71.5667 75.582 71.6097 75.5376 71.6514 75.4931C71.6653 75.4779 71.6792 75.4654 71.6931 75.4501C71.7042 75.4376 71.7139 75.4251 71.725 75.4126C71.7708 75.3598 71.8139 75.307 71.8569 75.2515C71.8708 75.2334 71.8861 75.2167 71.9 75.1987C71.9042 75.1931 71.9083 75.1862 71.9139 75.1792C71.9778 75.0931 72.0389 75.0042 72.0944 74.914C72.0972 74.9098 72.1014 74.9056 72.1042 74.9001C72.1431 74.8362 72.1792 74.7723 72.2139 74.707C72.2167 74.7015 72.2194 74.6959 72.2222 74.6904C72.2528 74.6306 72.2833 74.5709 72.3111 74.5098C72.3181 74.4959 72.3236 74.4806 72.3306 74.4667L86.0861 43.0126C86.1167 42.9417 86.1444 42.8695 86.1708 42.7987C86.1792 42.7751 86.1861 42.7529 86.1945 42.7306C86.2111 42.682 86.2264 42.6334 86.2403 42.5848C86.2472 42.5584 86.2542 42.532 86.2611 42.5056C86.2722 42.4598 86.2833 42.4154 86.2931 42.3695C86.2986 42.3431 86.3042 42.3167 86.3083 42.2904C86.3167 42.2445 86.3236 42.1973 86.3306 42.1515C86.3333 42.1279 86.3375 42.1042 86.3403 42.0806C86.3472 42.0223 86.3514 41.9654 86.3542 41.9084C86.3542 41.8973 86.3556 41.8862 86.3569 41.8737C86.3597 41.8056 86.3597 41.7376 86.3583 41.6709C86.3569 41.6542 86.3556 41.6348 86.3542 41.6154Z" fill="#D0D5DD"/>
<path d="M22.1847 77.0459C21.1611 77.0459 20.2556 76.6126 19.7014 75.8557L17.0889 72.2932L17.5931 71.9237L17.5958 71.9265C18.0319 72.5182 18.7528 72.8584 19.5736 72.8584L66.4333 72.8557C66.4958 72.8529 66.5708 72.8459 66.6458 72.8376C66.6583 72.8362 66.6708 72.8348 66.6819 72.8321L66.7194 72.8265C66.7694 72.8196 66.8194 72.8126 66.8694 72.8029C66.8875 72.8001 66.9069 72.7959 66.925 72.7918L66.9569 72.7848C67.0014 72.7751 67.0472 72.7654 67.0917 72.7543C67.1167 72.7473 67.1403 72.7404 67.1653 72.7334L67.1819 72.7279C67.225 72.7154 67.2694 72.7029 67.3125 72.6876C67.3403 72.6779 67.368 72.6682 67.3958 72.6584C67.4389 72.6432 67.4833 72.6265 67.5264 72.6084C67.5583 72.5959 67.5819 72.5862 67.6069 72.5751C67.6278 72.5668 67.6458 72.5571 67.6653 72.5473L67.6931 72.5348C67.7653 72.5015 67.8347 72.4654 67.9042 72.4279L67.9333 72.4126C67.9458 72.4057 67.9597 72.3987 67.9722 72.3918C68.0625 72.339 68.1389 72.2918 68.2083 72.2432C68.2764 72.1959 68.3458 72.1446 68.4222 72.0834C68.4347 72.0723 68.4486 72.0626 68.4611 72.0515L68.4903 72.0265C68.5347 71.989 68.5792 71.9501 68.6222 71.9098C68.6431 71.8904 68.6625 71.8709 68.6833 71.8515L68.6944 71.8404C68.7347 71.8015 68.7736 71.7598 68.8125 71.7196C68.8347 71.6959 68.8569 71.6709 68.8792 71.6459C68.9222 71.5973 68.9611 71.5487 69.0014 71.4987L69.0236 71.4709C69.0333 71.4584 69.0431 71.4459 69.0528 71.4334C69.1139 71.3529 69.1694 71.2709 69.218 71.1904C69.2569 71.1279 69.2931 71.0654 69.3278 71.0015L69.3333 70.989C69.3694 70.9209 69.4028 70.8529 69.4319 70.7834L83.1875 39.3293C83.2153 39.264 83.2417 39.1987 83.2653 39.1348L83.2861 39.0723C83.3 39.0293 83.3153 38.9848 83.3278 38.9404C83.3333 38.9182 83.3403 38.8959 83.3458 38.8737C83.3583 38.8279 83.368 38.7876 83.3764 38.7473C83.3819 38.7237 83.3861 38.7001 83.3903 38.6765C83.3986 38.6334 83.4042 38.5918 83.4097 38.5515L83.4181 38.489C83.4236 38.4376 83.4278 38.3862 83.4305 38.3348L83.4319 38.3084C83.4347 38.2432 83.4347 38.1834 83.4333 38.1237L83.4305 38.0723C83.4278 38.0293 83.4264 37.9876 83.4208 37.9473C83.4194 37.9307 83.4167 37.9154 83.4153 37.9015L83.4125 37.8848C83.4069 37.8473 83.4014 37.8112 83.3958 37.7737C83.3917 37.7515 83.3875 37.7307 83.3833 37.7084C83.3764 37.6751 83.368 37.6418 83.3597 37.6084L83.343 37.5459C83.3333 37.5126 83.3222 37.4779 83.3111 37.4432L83.2944 37.3932C83.2667 37.3182 83.2347 37.2432 83.1944 37.164L83.1778 37.1307C83.1444 37.0668 83.1083 37.0043 83.0681 36.9446C83.0486 36.914 83.0278 36.8834 83.0069 36.8543L83.0055 36.8515L83.5097 36.4821C83.5097 36.4821 83.5097 36.4821 83.5097 36.4834L86.1222 40.0446C86.1458 40.0779 86.1694 40.1112 86.1931 40.1446L86.2097 40.1709C86.2583 40.2459 86.3028 40.3209 86.3431 40.3959C86.3472 40.4029 86.3514 40.4098 86.3555 40.4168L86.3722 40.4529C86.4194 40.5473 86.4583 40.6376 86.4917 40.7265L86.4986 40.7459C86.5056 40.764 86.5097 40.7779 86.5139 40.7918C86.5319 40.8459 86.5458 40.8904 86.5597 40.9348C86.5667 40.9584 86.5722 40.9821 86.5792 41.0057C86.5917 41.0557 86.6028 41.0973 86.6111 41.1404C86.6153 41.1571 86.618 41.1682 86.6194 41.1793C86.6222 41.1946 86.6236 41.2057 86.625 41.2182C86.6347 41.2696 86.6417 41.3168 86.6472 41.3626C86.6514 41.3973 86.6542 41.4196 86.6569 41.4432C86.6625 41.4959 86.6653 41.5487 86.668 41.6015L86.6694 41.6196C86.6708 41.6348 86.6722 41.6501 86.6722 41.6668C86.675 41.7418 86.675 41.8168 86.6708 41.8918L86.668 41.9237C86.6639 41.9932 86.6597 42.0557 86.6514 42.1196C86.6486 42.139 86.6458 42.1584 86.6431 42.1765L86.6403 42.1973C86.6333 42.2473 86.625 42.2987 86.6153 42.3501C86.6097 42.3793 86.6042 42.4084 86.5986 42.4362C86.5875 42.4862 86.5764 42.5362 86.5639 42.5862C86.5569 42.6154 86.5486 42.6446 86.5403 42.6737C86.525 42.7265 86.5083 42.7793 86.4903 42.8334L86.4833 42.8529C86.4778 42.8709 86.4708 42.8904 86.4639 42.9084C86.4361 42.9848 86.4055 43.0626 86.3722 43.1404L72.5944 74.6432C72.5653 74.7084 72.5319 74.7737 72.4986 74.8376L72.4903 74.8543C72.4514 74.9265 72.4125 74.9973 72.3694 75.0654L72.3556 75.0862C72.2958 75.1834 72.2319 75.2765 72.1625 75.3682C72.1611 75.3709 72.1556 75.3793 72.1486 75.389C72.1375 75.4043 72.125 75.4182 72.1125 75.4321L72.1014 75.4459C72.0542 75.5057 72.0069 75.564 71.9583 75.6195C71.9444 75.6376 71.9347 75.6487 71.9236 75.6612C71.9125 75.6737 71.9014 75.6848 71.8889 75.6973L71.8792 75.7071C71.8333 75.7557 71.7875 75.8029 71.7403 75.8501L71.7278 75.8626C71.7153 75.8765 71.7028 75.889 71.6889 75.9015C71.6792 75.9112 71.6694 75.9196 71.6597 75.9279C71.6042 75.9793 71.5514 76.0237 71.4986 76.0682L71.4819 76.0821C71.4681 76.0946 71.4528 76.1084 71.4375 76.1196L71.4139 76.1376C71.2528 76.2668 71.075 76.3876 70.8903 76.4959C70.8833 76.5001 70.8736 76.5071 70.8639 76.5126C70.8486 76.5209 70.8347 76.5279 70.8194 76.5362C70.7306 76.5848 70.6472 76.6265 70.5639 76.6668C70.5403 76.6793 70.5264 76.6862 70.5111 76.6932C70.5 76.6987 70.4875 76.7029 70.475 76.7084C70.4306 76.7279 70.3986 76.7404 70.3667 76.7529C70.3167 76.7737 70.2653 76.7932 70.2139 76.8112C70.1819 76.8223 70.1486 76.8348 70.1167 76.8459L70.1 76.8515C70.0861 76.8571 70.0722 76.8612 70.0583 76.8654C70.0375 76.8723 70.0153 76.8779 69.993 76.8848L69.9472 76.8973C69.9167 76.9057 69.8861 76.9154 69.8556 76.9223C69.8028 76.9362 69.7486 76.9473 69.6958 76.9598L69.6694 76.9654C69.6444 76.9709 69.618 76.9765 69.593 76.982C69.5333 76.9932 69.4736 77.0015 69.4139 77.0098L69.3875 77.014C69.3667 77.0168 69.3458 77.0209 69.325 77.0223C69.2305 77.0334 69.1417 77.0404 69.0542 77.0432L22.1847 77.0459ZM18.6431 73.3557L20.2056 75.4848C20.6417 76.0793 21.3625 76.4196 22.1847 76.4196L69.0444 76.4168C69.1069 76.414 69.1819 76.4071 69.2569 76.3987C69.2694 76.3973 69.2819 76.3959 69.2944 76.3932L69.3306 76.3876C69.3806 76.3807 69.4305 76.3737 69.4805 76.364C69.5 76.3598 69.5181 76.3557 69.5361 76.3515L69.5667 76.3446C69.6111 76.3348 69.6569 76.3251 69.7014 76.314C69.7264 76.307 69.7514 76.3001 69.775 76.2932L69.8333 76.2765C69.8472 76.2723 69.8597 76.2696 69.8736 76.2654L69.9236 76.2473C69.95 76.239 69.9778 76.2279 70.0056 76.2182C70.0486 76.2029 70.0931 76.1862 70.1361 76.1682C70.1639 76.1571 70.1903 76.1459 70.2167 76.1348L70.2653 76.114C70.2778 76.107 70.2903 76.1001 70.3028 76.0946C70.3736 76.0612 70.4444 76.0251 70.5139 75.9876C70.5264 75.9807 70.5389 75.9751 70.5514 75.9682C70.5639 75.9612 70.5722 75.9557 70.5819 75.9501C70.7403 75.8584 70.8917 75.7543 71.0319 75.6418L71.0667 75.614C71.0778 75.6043 71.0889 75.5946 71.1 75.5848C71.1444 75.5473 71.1903 75.5084 71.2333 75.4682C71.2417 75.4612 71.25 75.4529 71.2597 75.4459L71.2764 75.4293C71.2861 75.4196 71.2958 75.4098 71.3055 75.4001C71.3472 75.3598 71.3861 75.3196 71.425 75.2779C71.4333 75.2682 71.4431 75.2584 71.4528 75.2487L71.4625 75.2376C71.475 75.2223 71.4833 75.2126 71.4917 75.2029C71.5333 75.1543 71.5736 75.1057 71.6139 75.0557C71.6222 75.0446 71.6319 75.0334 71.6417 75.0209L71.6528 75.0071C71.6528 75.0057 71.6583 74.9973 71.6653 74.989C71.725 74.9084 71.7806 74.8265 71.8306 74.7459L71.8431 74.7279C71.8778 74.6709 71.9097 74.6154 71.9403 74.5584L71.9486 74.5404C71.975 74.489 72.0028 74.4348 72.0278 74.3793L72.0458 74.3404L85.8014 42.8862C85.8292 42.8209 85.8555 42.7571 85.8778 42.6918L85.8986 42.6293C85.9139 42.5848 85.9278 42.5404 85.9403 42.4973C85.9472 42.4737 85.9528 42.4501 85.9597 42.4265C85.9708 42.3848 85.9805 42.3446 85.9889 42.3043C85.9944 42.2807 85.9986 42.2571 86.0028 42.2334C86.0111 42.1918 86.0167 42.1501 86.0222 42.1084L86.0306 42.0446C86.0361 41.9932 86.0403 41.9432 86.043 41.8918L86.0444 41.8682C86.0472 41.8001 86.0472 41.7404 86.0458 41.6821L86.043 41.6307C86.0403 41.589 86.0375 41.5473 86.0333 41.5057C86.0319 41.489 86.0292 41.4709 86.0264 41.4543C86.0194 41.4057 86.0139 41.3696 86.0083 41.3321C86.0069 41.3223 86.0056 41.3126 86.0042 41.3015C86.0014 41.2862 85.9986 41.2765 85.9958 41.2654C85.9889 41.2348 85.9819 41.2015 85.9722 41.1682C85.9653 41.1418 85.9611 41.1237 85.9556 41.1071C85.9458 41.0723 85.9347 41.0376 85.9222 41.0029L85.9125 40.9709C85.9097 40.964 85.9069 40.9571 85.9042 40.9501C85.8778 40.8779 85.8458 40.8043 85.8056 40.7251L85.7889 40.6918C85.7569 40.6293 85.7194 40.5668 85.6792 40.5057L85.6653 40.4834C85.65 40.4612 85.6333 40.4376 85.6153 40.4126L84.0555 38.2862C84.0555 38.3001 84.0542 38.314 84.0542 38.3265L84.0514 38.3584C84.0472 38.4279 84.0431 38.4918 84.0347 38.5557C84.0319 38.5751 84.0292 38.5946 84.0264 38.614L84.0236 38.6348C84.0167 38.6862 84.0083 38.7376 83.9986 38.789C83.993 38.8168 83.9875 38.8459 83.9819 38.8751C83.9708 38.9251 83.9597 38.9751 83.9472 39.0251C83.9389 39.0571 83.9319 39.0848 83.9236 39.1112C83.9083 39.164 83.8917 39.2168 83.8736 39.2709L83.8653 39.2946C83.8597 39.3112 83.8542 39.3293 83.8472 39.3459C83.8194 39.4237 83.7889 39.5015 83.7542 39.5793L69.9986 71.0334C69.9639 71.1112 69.9264 71.1918 69.8806 71.2779L69.875 71.2904C69.8319 71.3723 69.7875 71.4459 69.7431 71.5196C69.6847 71.6154 69.6181 71.7112 69.5472 71.8071C69.5333 71.8251 69.5194 71.8432 69.5056 71.8612L69.4875 71.8848C69.4403 71.9446 69.3931 72.0029 69.3431 72.0598C69.3181 72.089 69.2917 72.1182 69.2639 72.1473C69.218 72.1959 69.1722 72.2432 69.125 72.2904L69.1139 72.3015C69.0903 72.3251 69.0653 72.3487 69.0417 72.3723C68.9903 72.4196 68.9389 72.464 68.8861 72.5084L68.8625 72.5293C68.8444 72.5446 68.8264 72.5612 68.8069 72.5751C68.7181 72.6459 68.6361 72.7071 68.5556 72.7626C68.4736 72.8196 68.3833 72.8765 68.2792 72.9362C68.2611 72.9473 68.2417 72.9571 68.2236 72.9668L68.2 72.9793C68.1194 73.0237 68.0361 73.0668 67.9514 73.1057L67.9264 73.1168C67.9014 73.1293 67.875 73.1404 67.85 73.1529C67.8222 73.1654 67.7917 73.1779 67.7625 73.189C67.7042 73.2126 67.6528 73.2321 67.6014 73.2515C67.5694 73.2626 67.5361 73.2751 67.5042 73.2862C67.4528 73.3029 67.4014 73.3182 67.35 73.3334L67.3333 73.3376C67.3028 73.3459 67.2722 73.3557 67.2431 73.3626C67.1903 73.3765 67.1361 73.3876 67.0819 73.4001L67.0542 73.4057C67.0292 73.4112 67.0042 73.4168 66.9778 73.4209C66.9181 73.4321 66.8583 73.4404 66.7986 73.4487L66.7722 73.4529C66.7514 73.4557 66.7319 73.4584 66.7111 73.4612C66.6167 73.4723 66.5278 73.4793 66.4403 73.4821L19.5681 73.4848C19.2472 73.4834 18.9361 73.439 18.6431 73.3557ZM72.3542 75.0876L72.3528 75.0904C72.3542 75.089 72.3542 75.089 72.3542 75.0876ZM71.8458 74.7251C71.8458 74.7265 71.8444 74.7265 71.8444 74.7279L71.8458 74.7251Z" fill="#F9FAFB"/>
<path d="M83.8472 19.5167L81.2347 15.9542L78.9903 30.0278L78.1 35.6028H81.025C81.1111 35.6028 81.1972 35.6056 81.2792 35.6126L81.6028 33.5889V33.5876L83.8472 19.5167Z" fill="#E4E7EC"/>
<path d="M81.5431 35.95L81.2542 35.9264C81.1806 35.9208 81.1028 35.9167 81.025 35.9167H77.7333L81.043 15.1653L84.1764 19.4361L81.9333 33.5042L81.9125 33.6403L81.5431 35.95ZM78.4667 35.2917H81.0153L81.2944 33.5417L83.5181 19.5972L81.425 16.7431L78.4667 35.2917Z" fill="#F9FAFB"/>
<path d="M83.4736 39.45L69.7181 70.9042C69.1528 72.1972 67.8195 73.1111 66.4319 73.1667L19.5722 73.1695C18.1375 73.1695 17.0319 72.2389 16.8722 70.9028L12.4917 33.875C12.2625 31.9347 14.0819 30.0292 16.1653 30.0292H33.1944C34.6292 30.0292 35.7375 30.957 35.8958 32.2931L36.0194 33.3389C36.1778 34.6764 37.2833 35.6056 38.7194 35.6056H81.0264C81.1125 35.6056 81.1986 35.6083 81.2806 35.6153C83.207 35.7625 84.2861 37.5903 83.4736 39.45Z" fill="#D0D5DD"/>
<path d="M19.5708 73.4834C17.9764 73.4834 16.7389 72.4375 16.5611 70.9417L12.1806 33.9112C12.0667 32.9459 12.4125 31.9278 13.1319 31.1195C13.925 30.2278 15.0306 29.7153 16.1653 29.7153H33.1944C34.7903 29.7153 36.0292 30.7598 36.2056 32.2556L36.3292 33.3014C36.4681 34.4737 37.45 35.2917 38.7181 35.2917H81.025C81.1208 35.2917 81.2139 35.2959 81.3056 35.3028C82.3111 35.3806 83.1667 35.8876 83.6514 36.6931C84.1556 37.5306 84.1944 38.582 83.7611 39.5751L70.0056 71.0292C69.3917 72.4334 67.9611 73.4181 66.4458 73.4792L19.5708 73.4834ZM16.1653 30.3417C15.2222 30.3417 14.2639 30.7876 13.5986 31.5348C12.9986 32.2098 12.7083 33.0487 12.8014 33.8376L17.1819 70.8681C17.3208 72.0403 18.3028 72.8584 19.5708 72.8584L66.4306 72.8556C67.6806 72.8056 68.9181 71.9514 69.4306 70.7806L83.1875 39.3264C83.5389 38.5209 83.5125 37.6792 83.1153 37.0167C82.7361 36.3862 82.0597 35.9889 81.2569 35.9278C81.1819 35.9223 81.1042 35.9181 81.0264 35.9181H38.7181C37.1236 35.9181 35.8861 34.8723 35.7083 33.3764L35.5847 32.3306C35.4458 31.1598 34.4625 30.3417 33.1944 30.3417H16.1653Z" fill="#F9FAFB"/>
<path d="M78.1 35.9167H38.7181C37.1236 35.9167 35.8847 34.8723 35.7069 33.3764L35.5847 32.3306C35.4458 31.1598 34.4625 30.3417 33.1944 30.3417H21.9903C21.8986 30.3417 21.8125 30.3014 21.7528 30.232C21.6931 30.1626 21.6681 30.0709 21.6819 29.9806L22.3056 26.0667C22.3292 25.9153 22.4611 25.8028 22.6139 25.8028H30.5056L32.9153 10.6917H25.1236C25.0319 10.6917 24.9458 10.6514 24.8861 10.582C24.8264 10.5126 24.8014 10.4209 24.8153 10.3306L26.2681 1.21811C26.2917 1.06672 26.4236 0.954224 26.5764 0.954224H68.35C68.4403 0.954224 68.525 0.993111 68.5847 1.06117L68.8042 1.31117C68.8653 1.38061 68.8931 1.47506 68.8778 1.56672L66.6347 15.6417H81.2333C81.325 15.6417 81.4111 15.682 81.4708 15.7514C81.5306 15.8209 81.5556 15.9126 81.5417 16.0028L78.4083 35.6528C78.3847 35.8056 78.2542 35.9167 78.1 35.9167ZM22.3569 29.7167H33.1958C34.7903 29.7167 36.0292 30.7612 36.2069 32.257L36.3292 33.3028C36.4681 34.4737 37.4514 35.2917 38.7194 35.2917H77.8333L80.8681 16.2667H66.2694C66.1778 16.2667 66.0917 16.2264 66.0319 16.157C65.9722 16.0876 65.9472 15.9959 65.9611 15.9056L68.2389 1.61256L68.2097 1.57922H26.8444L25.4903 10.0667H33.2819C33.3736 10.0667 33.4597 10.107 33.5194 10.1764C33.5792 10.2459 33.6042 10.3376 33.5903 10.4278L31.0806 26.1639C31.0569 26.3153 30.925 26.4278 30.7722 26.4278H22.8806L22.3569 29.7167ZM63.075 31.9709H37.3861C37.0819 31.9709 36.8014 31.8473 36.6167 31.6306C36.4347 31.4167 36.3597 31.1376 36.4056 30.8459C36.4972 30.2695 37.0347 29.8181 37.6292 29.8181H63.3181C63.6208 29.8181 63.9014 29.9417 64.0847 30.157C64.2681 30.3709 64.3431 30.6514 64.2958 30.9445C64.2042 31.5195 63.6681 31.9709 63.075 31.9709ZM37.6292 30.4431C37.3444 30.4431 37.0667 30.6723 37.0236 30.9445C37.0056 31.0542 37.0306 31.1514 37.0931 31.2251C37.1597 31.3028 37.2639 31.3459 37.3861 31.3459H63.075C63.3597 31.3459 63.6361 31.1167 63.6792 30.8459C63.6972 30.7362 63.6722 30.6362 63.6097 30.5626C63.5431 30.4848 63.4403 30.4431 63.3181 30.4431H37.6292ZM63.8917 26.8514H38.2014C37.8972 26.8514 37.6181 26.7278 37.4333 26.5112C37.25 26.2973 37.175 26.0181 37.2222 25.7251C37.3139 25.1501 37.8514 24.6987 38.4458 24.6987H64.1347C64.4389 24.6987 64.7181 24.8223 64.9028 25.0376C65.0847 25.2514 65.1597 25.5306 65.1139 25.8237C65.0208 26.4001 64.4847 26.8514 63.8917 26.8514ZM38.4458 25.3237C38.1611 25.3237 37.8833 25.5528 37.8403 25.8237C37.8222 25.9348 37.8472 26.032 37.9097 26.1056C37.9764 26.1834 38.0806 26.2264 38.2028 26.2264H63.8917C64.1764 26.2264 64.4528 25.9973 64.4958 25.7251C64.5139 25.6139 64.4903 25.5167 64.4264 25.4431C64.3597 25.3653 64.2569 25.3237 64.1347 25.3237H38.4458ZM64.7083 21.7292H39.0194C38.7153 21.7292 38.4347 21.6056 38.25 21.3889C38.0681 21.1751 37.9931 20.8959 38.0389 20.6042C38.1306 20.0278 38.6681 19.5764 39.2625 19.5764H64.9514C65.2542 19.5764 65.5347 19.7001 65.7181 19.9153C65.9014 20.1292 65.9764 20.4098 65.9292 20.7028C65.8375 21.2792 65.3014 21.7292 64.7083 21.7292ZM39.2625 20.2014C38.9778 20.2014 38.7 20.4306 38.6569 20.7028C38.6389 20.8126 38.6625 20.9098 38.7264 20.9834C38.7931 21.0612 38.8972 21.1042 39.0194 21.1042H64.7083C64.9931 21.1042 65.2694 20.8751 65.3125 20.6042C65.3306 20.4945 65.3056 20.3945 65.2431 20.3209C65.1764 20.2431 65.0736 20.2014 64.9514 20.2014H39.2625Z" fill="#F9FAFB"/>
<path d="M16.7514 10.1265L14.1611 26.3681H30.9889L33.5792 10.1265H16.7514ZM31.1556 12.1598L29.2139 24.3334H16.5806L18.5222 12.1598H31.1556Z" fill="#D0D5DD"/>
<path d="M68.5722 1.51819L81.2361 15.9543H66.2694L68.5722 1.51819Z" fill="#D0D5DD"/>
<path d="M81.2361 16.2667H66.2694C66.1778 16.2667 66.0917 16.2265 66.0319 16.157C65.9722 16.0876 65.9472 15.9959 65.9611 15.9056L68.2639 1.46952C68.2833 1.35008 68.3694 1.25147 68.4861 1.21813C68.6028 1.1848 68.7278 1.22091 68.8083 1.31258L81.4722 15.7487C81.5528 15.8404 81.5722 15.9723 81.5222 16.0834C81.4694 16.1959 81.3583 16.2667 81.2361 16.2667ZM66.6361 15.6417H80.5458L68.775 2.22508L66.6361 15.6417Z" fill="#F9FAFB"/>
<path d="M65.6736 19.9542C65.4986 19.7486 65.2417 19.6361 64.9528 19.6361H39.2625C38.6972 19.6361 38.1847 20.0653 38.0986 20.6139C38.0542 20.8889 38.125 21.15 38.2958 21.3514C38.4694 21.5542 38.7333 21.6708 39.0194 21.6708H64.7083C65.2736 21.6708 65.7833 21.2417 65.8708 20.6944C65.9153 20.4181 65.8444 20.1556 65.6736 19.9542Z" fill="#D0D5DD"/>
<path d="M64.1347 24.7583H38.4458C37.8806 24.7583 37.3694 25.1875 37.2819 25.7347C37.2375 26.0097 37.3083 26.2722 37.4792 26.4722C37.6528 26.675 37.9153 26.7916 38.2028 26.7916H63.8917C64.4569 26.7916 64.9667 26.3625 65.0542 25.8139C65.0986 25.5389 65.0278 25.2764 64.8569 25.0764C64.6847 24.8736 64.4208 24.7583 64.1347 24.7583Z" fill="#D0D5DD"/>
<path d="M63.3181 29.8778H37.6292C37.0639 29.8778 36.5514 30.307 36.4653 30.8556C36.4208 31.1306 36.4917 31.3917 36.6625 31.5931C36.8361 31.7959 37.1 31.9125 37.3861 31.9125H63.075C63.6403 31.9125 64.15 31.4834 64.2375 30.9361C64.2819 30.6611 64.2111 30.3986 64.0403 30.1973C63.8639 29.9903 63.6083 29.8778 63.3181 29.8778Z" fill="#D0D5DD"/>
</svg>
